<svg xmlns="http://www.w3.org/2000/svg" width="66" height="54" fill="none" viewBox="0 0 66 54">
    <path fill="#151515" d="M16.343 47.206v-2.691a1.593 1.593 0 0 0-1.024-1.601 1.604 1.604 0 0 0-.667-.103 1.666 1.666 0 0 0-1.51.762 1.577 1.577 0 0 0-1.421-.762 1.424 1.424 0 0 0-1.259.637v-.53h-.935v4.288h.944v-2.36a1.001 1.001 0 0 1 .618-1.066c.138-.056.286-.08.434-.072.62 0 .935.403.935 1.13v2.386h.944v-2.377a1.009 1.009 0 0 1 1.052-1.14c.639 0 .944.404.944 1.13v2.387l.945-.018zm13.968-4.288h-1.537v-1.3h-.944v1.3h-.854v.852h.872v1.974c0 .995.386 1.587 1.492 1.587.413.002.819-.113 1.17-.332l-.27-.798a1.73 1.73 0 0 1-.828.242c-.45 0-.62-.287-.62-.717V43.77h1.528l-.009-.852zm7.976-.107a1.27 1.27 0 0 0-1.133.628v-.52h-.926v4.287h.935v-2.404c0-.709.306-1.103.9-1.103.2-.003.398.034.584.107l.288-.897a2.007 2.007 0 0 0-.666-.116l.018.018zm-12.058.448a3.22 3.22 0 0 0-1.753-.448c-1.088 0-1.799.52-1.799 1.372 0 .7.522 1.13 1.484 1.265l.45.063c.512.071.755.206.755.448 0 .332-.342.52-.98.52a2.292 2.292 0 0 1-1.43-.448l-.45.726c.545.38 1.198.575 1.862.556 1.24 0 1.96-.583 1.96-1.399 0-.816-.566-1.148-1.502-1.282l-.45-.063c-.404-.054-.728-.135-.728-.422s.306-.502.819-.502c.474.005.938.132 1.349.368l.413-.754zm25.047-.448a1.27 1.27 0 0 0-1.133.628v-.52h-.926v4.287h.935v-2.404c0-.709.306-1.103.9-1.103.2-.003.398.034.584.107l.287-.897a2.007 2.007 0 0 0-.665-.116l.018.018zm-12.05 2.242a2.16 2.16 0 0 0 1.407 2.108c.283.105.585.151.887.134a2.252 2.252 0 0 0 1.546-.51l-.45-.754a1.892 1.892 0 0 1-1.123.386 1.382 1.382 0 0 1-1.27-1.373 1.375 1.375 0 0 1 1.27-1.372c.406.004.8.14 1.124.386l.45-.754a2.251 2.251 0 0 0-1.547-.511 2.176 2.176 0 0 0-2.14 1.36 2.16 2.16 0 0 0-.153.882v.018zm8.759 0v-2.135h-.935v.52a1.632 1.632 0 0 0-1.349-.627c-.596 0-1.168.236-1.59.657a2.24 2.24 0 0 0 1.59 3.827 1.635 1.635 0 0 0 1.349-.627v.52h.935v-2.135zm-3.48 0a1.293 1.293 0 0 1 .852-1.141 1.303 1.303 0 0 1 1.724.989 1.293 1.293 0 0 1-.56 1.308c-.211.14-.459.215-.712.216a1.293 1.293 0 0 1-1.23-.85 1.284 1.284 0 0 1-.074-.522zM33.22 42.811a2.25 2.25 0 0 0-1.58.679 2.24 2.24 0 0 0 1.643 3.805 2.616 2.616 0 0 0 1.785-.583l-.45-.69a2.049 2.049 0 0 1-1.25.448 1.194 1.194 0 0 1-1.285-1.05h3.192v-.358c0-1.345-.836-2.242-2.041-2.242l-.014-.01zm0 .834a1.067 1.067 0 0 1 1.088 1.04H32.06a1.102 1.102 0 0 1 1.142-1.04h.018zm23.428 1.417v-3.866h-.899v2.243a1.632 1.632 0 0 0-1.348-.628c-.597 0-1.168.236-1.59.657a2.24 2.24 0 0 0 1.59 3.827 1.635 1.635 0 0 0 1.348-.627v.52h.9v-2.126zm1.56 1.52a.45.45 0 0 1 .31.121.416.416 0 0 1-.14.69.424.424 0 0 1-.17.037.45.45 0 0 1-.404-.26.421.421 0 0 1 .094-.467.449.449 0 0 1 .324-.12h-.013zm0 .758a.32.32 0 0 0 .322-.323.331.331 0 0 0-.088-.224.332.332 0 0 0-.233-.099.338.338 0 0 0-.239.1.331.331 0 0 0 0 .448c.031.03.068.055.108.071.046.02.095.03.144.027h-.013zm.028-.533a.18.18 0 0 1 .117.035.112.112 0 0 1 .04.095.106.106 0 0 1-.032.08.158.158 0 0 1-.094.04l.13.149h-.103l-.121-.148h-.04v.148h-.086v-.395l.189-.004zm-.1.076v.107h.1a.095.095 0 0 0 .053 0 .044.044 0 0 0 0-.04.044.044 0 0 0 0-.04.093.093 0 0 0-.053 0l-.1-.027zm-4.945-1.82a1.293 1.293 0 0 1 .852-1.142 1.301 1.301 0 0 1 1.724.989 1.293 1.293 0 0 1-.56 1.308c-.211.14-.459.215-.712.216a1.295 1.295 0 0 1-1.23-.85 1.284 1.284 0 0 1-.074-.522zm-31.575 0v-2.145h-.935v.52a1.632 1.632 0 0 0-1.349-.627 2.25 2.25 0 0 0-1.59.657 2.24 2.24 0 0 0 1.59 3.827 1.636 1.636 0 0 0 1.35-.627v.52h.934v-2.126zm-3.48 0a1.294 1.294 0 0 1 .852-1.142 1.301 1.301 0 0 1 1.724.989 1.294 1.294 0 0 1-1.272 1.524 1.292 1.292 0 0 1-1.313-1.372h.01z"/>
    <path fill="#FF5F00" d="M40.081 10.247H25.92v25.388H40.08V10.247z"/>
    <path fill="#EB001B" d="M26.818 22.944a16.084 16.084 0 0 1 1.624-7.06A16.124 16.124 0 0 1 33 10.249 16.22 16.22 0 0 0 15.925 8.42a16.172 16.172 0 0 0-6.646 5.955 16.115 16.115 0 0 0 0 17.13 16.171 16.171 0 0 0 6.645 5.956A16.22 16.22 0 0 0 33 35.635 16.126 16.126 0 0 1 28.442 30a16.086 16.086 0 0 1-1.624-7.056z"/>
    <path fill="#F79E1B" d="M59.189 22.944c0 3.03-.855 5.998-2.466 8.565a16.172 16.172 0 0 1-6.647 5.956A16.222 16.222 0 0 1 33 35.635a16.153 16.153 0 0 0 4.556-5.637 16.111 16.111 0 0 0 0-14.113A16.152 16.152 0 0 0 33 10.248a16.22 16.22 0 0 1 17.076-1.83 16.171 16.171 0 0 1 6.647 5.955 16.116 16.116 0 0 1 2.466 8.566v.005zM57.642 32.944v-.52h.211v-.107h-.535v.107h.23v.52h.094zm1.039 0v-.627h-.162l-.19.448-.188-.448h-.144v.627h.117v-.47l.175.408h.122l.175-.408v.475l.095-.005z"/>
</svg>
