<svg xmlns="http://www.w3.org/2000/svg" width="72" height="23" fill="none" viewBox="0 0 72 23">
    <mask id="a" width="71" height="23" x="0" y="0" maskUnits="userSpaceOnUse">
        <path fill="#fff" d="M0 .175h70.65v22.797H0"/>
    </mask>
    <g fill="#005CA3" fill-rule="evenodd" clip-rule="evenodd" mask="url(#a)">
        <path d="M24.892 22.671L28.472.575h5.723l-3.58 22.096h-5.723zM51.362 1.115c-1.13-.446-2.92-.94-5.134-.94-5.651 0-9.632 3.009-9.655 7.31-.047 3.174 2.85 4.937 5.016 5.995 2.214 1.081 2.968 1.786 2.968 2.75-.024 1.481-1.79 2.163-3.439 2.163-2.284 0-3.509-.352-5.37-1.176l-.753-.352-.8 4.96c1.342.61 3.814 1.152 6.382 1.175 6.005 0 9.914-2.962 9.96-7.545.024-2.516-1.506-4.444-4.803-6.018-2.002-1.01-3.226-1.693-3.226-2.727.023-.94 1.036-1.904 3.296-1.904 1.861-.047 3.227.4 4.263.846l.518.235.777-4.772z"/>
    </g>
    <path fill="#005CA3" fill-rule="evenodd" d="M66.034.575h-4.428c-1.365 0-2.402.4-2.99 1.833l-8.502 20.263h6.005s.99-2.727 1.202-3.315h7.347c.165.776.683 3.315.683 3.315h5.299L66.034.575zm-7.065 14.268l2.284-6.182c-.023.047.471-1.293.754-2.116l.4 1.904s1.084 5.29 1.32 6.394h-4.758zM20.112.575l-5.605 15.067-.612-3.056c-1.037-3.525-4.286-7.356-7.913-9.26l5.134 19.322h6.052L26.164.575h-6.052z" clip-rule="evenodd"/>
    <path fill="#FFAD30" fill-rule="evenodd" d="M9.303.575H.094L0 1.021c7.183 1.834 11.94 6.253 13.895 11.565L11.893 2.431c-.33-1.41-1.343-1.81-2.59-1.856z" clip-rule="evenodd"/>
</svg>
